<?xml version="1.0" encoding="utf-8"?>
<svg xmlns="http://www.w3.org/2000/svg" xmlns:xlink="http://www.w3.org/1999/xlink" xmlns:xodm="http://www.corel.com/coreldraw/odm/2003" width="36.9641mm" height="41.5323mm" version="1.1" style="shape-rendering:geometricPrecision; text-rendering:geometricPrecision; image-rendering:optimizeQuality; fill-rule:evenodd; clip-rule:evenodd" viewBox="0 0 494.65 555.78">
 <defs>
  <style type="text/css">
   
    .fil0 {fill:#FF6F0F}
   
  </style>
 </defs>
 <g id="Layer_x0020_1">
  
  <g id="_2172708303744">
   <path class="fil0" d="M487.64 330.26c-72.44,121.03 -194.54,129.82 -311.91,63.26 -78.13,-44.3 -132.04,-122.54 -129.25,-213.55 1.72,-56.01 -32.66,26.05 -35.65,36.53 -30.04,105.16 100.81,226.32 192.93,258.04 119.52,41.15 275.06,2.94 283.88,-144.28z"/>
   <path class="fil0" d="M148.06 346.65c12.17,12.8 44.94,31.71 61.64,40.14 12.02,6.07 23.34,10.87 36.13,15.39 18.11,6.4 25.92,13.25 31.17,-5.66 15.14,-54.46 23.66,-121.6 9.34,-177.04l-5.72 -6.23 -132.56 133.4z"/>
   <path class="fil0" d="M295.91 413.65c25.16,0.43 112.35,-3.11 115.4,-36.14 3.64,-39.46 1.71,-93.69 -17.65,-129.21 -15.69,-28.77 -19.11,-18.59 -35.12,4.02 -10.52,14.85 -19.17,30.91 -26.89,47.39 -12.64,26.97 -33.42,85.25 -35.74,113.95z"/>
   <path class="fil0" d="M206.05 171.9c9.69,-38.11 -82.16,21.39 -93.13,30.2 -43.87,35.22 -47.56,41.16 -16.38,88.91 34.13,52.27 35.22,37.14 65.5,-14.01 20.35,-34.37 34.13,-66.31 44,-105.1z"/>
   <path class="fil0" d="M61.29 420.15c-17.29,-25.01 -21.14,-64.03 -45.96,-99.29 2.44,68.65 55.87,146.85 115.76,179.42 82.38,44.8 151.36,33.26 230.36,-7.58 -34.83,0.59 -94.99,36.83 -112.78,11.17 -20.39,-29.4 -58.48,25.73 -107.93,-19.29 -18.43,-16.78 -11.5,-28.64 -31.24,-43.03 -22.86,-16.66 -29.79,5.27 -48.21,-21.4z"/>
   <path class="fil0" d="M379.81 0c-8.94,2.19 -40.3,36.81 -47.75,45.65 -16.33,19.37 -42.27,32.08 -14.77,54.92 17.98,14.94 57.15,25.78 58.67,-9.36 1.15,-26.41 6.65,-66 3.85,-91.2z"/>
   <path class="fil0" d="M190.36 103.96l4.04 4.38c-18.58,-5.06 -70.19,22.24 -87.15,35.08 -28.42,21.52 -51.94,41.41 -41.1,75.08l124.21 -114.54z"/>
   <path class="fil0" d="M297.49 101.69c12.67,-28.43 -49.98,-15.94 -20.33,26.88 13.8,19.93 43.35,33.57 67.87,31.79 43.92,-3.18 40.33,-60.28 7.33,-27.81 -17.53,17.25 -65.26,-7.55 -54.87,-30.87z"/>
   <path class="fil0" d="M226.82 51.99c-45.63,4.59 -90.52,22.17 -125.71,51.99 -13.23,11.21 -39.63,32.69 -36.92,51.68 1.27,8.89 45.49,-81.18 165.05,-91.38 10.18,-0.87 74.06,6.87 74.35,-4.59 0.26,-10.21 -67.45,-8.63 -76.77,-7.69z"/>
   <path class="fil0" d="M431.51 373.72l-2.43 0.02c45.84,-20.48 27.31,-129.78 1.06,-161.2l1.37 161.18z"/>
   <path class="fil0" d="M385.1 94.21c-4.11,23.55 3.9,10.94 32.03,44.28 46.03,54.56 59.64,105.4 54.32,179.44 36.95,-46.43 -15.09,-181.02 -86.35,-223.72z"/>
   <path class="fil0" d="M214.35 227.9c8.83,-3.73 31.23,-21.02 43.61,-27.63 18.59,-9.93 33.64,-13.14 16.26,-42.96l-37.51 -1.21 -22.37 71.8z"/>
   <path class="fil0" d="M317.88 269.3c6.76,-6.7 20.31,-31.82 29.02,-42.19 14.07,-16.77 23.31,-15.69 0.15,-39.87 -13.47,-14.07 -38.26,7.82 -37.23,20.61 1.61,19.94 6.84,37.54 8.06,61.45z"/>
   <path class="fil0" d="M166.12 150.04c14.91,-2.71 31.12,-8.96 48.08,-11.88 12.84,-2.21 11.66,-0.83 20.49,-9.64 3.87,-3.86 11.75,-9.2 12.71,-14.31 -15.89,-14.49 -30.94,-3.28 -44.93,6.31 -8.54,5.85 -31.18,21.95 -36.34,29.52z"/>
   <path class="fil0" d="M413.09 244.63c1.79,-11.75 0.29,-38.16 -1.49,-50.44 -2.07,-14.26 -17.12,-19.34 -30.39,-21.6 -0.05,7.2 1.32,17.86 2.25,25.13 1.53,12.04 17.6,28.53 29.63,46.9z"/>
   <path class="fil0" d="M173.44 529.31c-3.63,-2.01 -17.55,-3.62 -24.19,-6.35 -8.3,-3.4 -13.31,-8.63 -19.47,-11.43l3.96 44.24 39.71 -26.47z"/>
   <path class="fil0" d="M469.37 418.25c26.24,0.05 31.51,-30.91 18.3,-42.51 -3.73,2.93 -16.39,35.73 -18.3,42.51z"/>
   <path class="fil0" d="M142.24 463.06c5.45,13.12 8.54,17.99 22.2,23.53 11.14,4.51 26.18,5.27 37.64,1.53 -22.18,-2.97 -40.64,-16.73 -59.84,-25.05z"/>
   <path class="fil0" d="M178.73 94.16c9.23,-0.33 71.73,-6.77 81.26,-10.22 -19.8,-5.34 -43.57,-1.83 -63.26,3.47 -3.18,0.86 -6.43,1.73 -9.56,2.7 -1.35,0.42 -3.3,1 -4.53,1.58l-2.97 1.78c-0.21,0.14 -0.64,0.45 -0.93,0.7z"/>
   <path class="fil0" d="M22.55 169.81c-22.69,-1.38 -28.43,21.04 -16.44,30.06l16.44 -30.06z"/>
   <path class="fil0" d="M342.34 122.51c-6.01,-2.43 -11.43,-3.15 -17.88,-6.34 -5.97,-2.95 -9.78,-6.65 -15.93,-8.94 -0.67,10.65 3.93,13.71 12.7,18.18 7.23,3.69 18.11,6.4 21.1,-2.9z"/>
   <path class="fil0" d="M394.5 145.67c3.4,3.34 8.33,11.2 12.05,15.47 12.08,13.9 -0.82,1.51 13.64,13.71 4.16,3.51 21.08,25.73 22.72,30.28 -4.43,-15.28 -32.43,-57.73 -48.4,-59.46z"/>
   <path class="fil0" d="M261.26 498.72c2.1,8.84 7.62,9.14 16.53,7.32 5.61,-1.15 11.91,-2.97 16.23,-6.27l-32.76 -1.05z"/>
   <path class="fil0" d="M84.05 421.14c-4.51,-8.9 -19.24,-16.1 -22.72,-25.15 -0.47,13.08 9.71,23.47 22.72,25.15z"/>
  </g>
 </g>
</svg>